<?xml version="1.0" encoding="UTF-8"?>
<svg width="1131px" height="211px" viewBox="0 0 1131 211" version="1.1" xmlns="http://www.w3.org/2000/svg" xmlns:xlink="http://www.w3.org/1999/xlink">
    <title>FinalLogo-Vector-2</title>
    <g id="Page-1" stroke="none" stroke-width="1" fill="none" fill-rule="evenodd">
        <g id="FinalLogo-Vector-2" fill="#FFFFFF" fill-rule="nonzero">
            <g id="Group" transform="translate(319.363193, 54.371000)">
                <path d="M97.685,95.601 C98.145,96.988 98.379,98.263 98.379,99.417 C98.379,102.427 97.274,104.884 95.061,106.79 C92.849,108.7 90.285,109.653 87.377,109.653 C82.718,109.653 79.577,107.358 77.948,102.76 L71.201,84.147 L27.086,84.147 L20.27,102.702 C18.649,107.339 15.478,109.653 10.743,109.653 C7.969,109.653 5.487,108.7 3.294,106.79 C1.096,104.884 0,102.481 0,99.591 C0,98.32 0.23,96.987 0.695,95.601 L30.713,11.625 C33.604,3.875 39.794,0 49.278,0 C58.875,0 65.123,3.923 68.014,11.776 L97.685,95.601 Z M63.958,63.675 L48.991,21.842 L34.222,63.675 L63.958,63.675 Z" id="Shape"></path>
                <path d="M253.435,93.341 C254.706,95.31 255.34,97.275 255.34,99.239 C255.34,102.135 254.206,104.594 251.946,106.616 C249.682,108.639 247.161,109.654 244.378,109.654 C240.896,109.654 238.056,108.046 235.856,104.831 L206.363,59.899 C201.55,66.358 194.047,75.987 183.855,88.788 L183.855,99.136 C183.855,102.525 182.803,105.126 180.706,106.937 C178.607,108.748 176.156,109.654 173.358,109.654 C170.441,109.654 168.05,108.787 166.185,107.047 C163.966,105.195 162.862,102.59 162.862,99.229 L162.862,11.641 C162.862,8.399 163.966,5.791 166.185,3.823 C168.05,2.086 170.441,1.216 173.358,1.216 C176.156,1.216 178.607,2.144 180.706,3.993 C182.803,5.845 183.855,8.389 183.855,11.627 L183.855,55.35 L222.027,5.38 C224.223,2.605 226.886,1.216 230.007,1.216 C232.899,1.216 235.443,2.277 237.641,4.396 C239.837,6.515 240.937,8.954 240.937,11.706 C240.937,13.884 240.138,16.003 238.536,18.065 L219.969,42.372 L253.435,93.341 Z" id="Path"></path>
                <path d="M411.757,11.625 L411.757,65.583 C411.757,79.696 407.506,90.626 399.005,98.376 C390.503,106.126 379.077,109.999 364.738,109.999 C350.277,109.999 338.825,106.126 330.384,98.376 C321.939,90.626 317.717,79.696 317.717,65.583 L317.717,11.625 C317.717,8.387 318.737,5.843 320.779,3.991 C322.821,2.141 325.298,1.214 328.216,1.214 C331.014,1.214 333.463,2.142 335.564,3.991 C337.66,5.843 338.712,8.387 338.712,11.625 L338.712,65.583 C338.712,81.315 347.388,89.179 364.739,89.179 C382.088,89.179 390.763,81.316 390.763,65.583 L390.763,11.625 C390.763,8.387 391.782,5.843 393.825,3.991 C395.865,2.141 398.344,1.214 401.26,1.214 C404.06,1.214 406.511,2.142 408.609,3.991 C410.707,5.842 411.757,8.386 411.757,11.625" id="Path"></path>
                <path d="M498.254,99.228 C498.254,102.589 497.232,105.167 495.189,106.962 C493.149,108.757 490.671,109.653 487.759,109.653 C484.956,109.653 482.508,108.757 480.407,106.962 C478.308,105.167 477.261,102.589 477.261,99.228 L477.261,11.64 C477.261,8.398 478.309,5.849 480.407,3.995 C482.508,2.141 484.956,1.214 487.759,1.214 C490.671,1.214 493.149,2.142 495.189,3.995 C497.232,5.849 498.254,8.397 498.254,11.64 L498.254,99.228 Z" id="Path"></path>
                <path d="M644.781,22.033 L620.666,22.033 L620.666,99.222 C620.666,102.583 619.613,105.163 617.516,106.958 C615.417,108.757 612.966,109.653 610.168,109.653 C607.252,109.653 604.773,108.757 602.731,106.958 C600.689,105.163 599.669,102.583 599.669,99.222 L599.669,22.033 L572.38,22.033 C569.157,22.033 566.625,21.022 564.781,18.997 C562.936,16.976 562.017,14.516 562.017,11.625 C562.017,8.848 562.943,6.419 564.793,4.336 C566.643,2.254 569.189,1.214 572.427,1.214 L644.78,1.214 C648.132,1.214 650.706,2.254 652.501,4.336 C654.295,6.419 655.191,8.848 655.191,11.625 C655.191,14.516 654.295,16.976 652.501,18.997 C650.707,21.022 648.132,22.033 644.781,22.033" id="Path"></path>
                <path d="M809.527,17.697 L774.307,68.364 L774.307,99.2 C774.307,102.569 773.254,105.153 771.157,106.952 C769.058,108.755 766.605,109.653 763.809,109.653 C761.009,109.653 758.558,108.757 756.459,106.958 C754.361,105.163 753.313,102.585 753.313,99.224 L753.313,69.497 L717.917,17.523 C716.643,15.557 716.01,13.592 716.01,11.625 C716.01,8.733 717.102,6.274 719.291,4.25 C721.48,2.227 723.959,1.214 726.722,1.214 C730.177,1.214 732.944,2.793 735.018,5.95 L763.305,47.413 L792.306,5.695 C794.508,2.708 797.291,1.214 800.654,1.214 C803.437,1.214 805.927,2.227 808.132,4.25 C810.332,6.274 811.437,8.733 811.437,11.625 C811.436,13.706 810.799,15.732 809.527,17.697" id="Path"></path>
            </g>
            <g id="Group" transform="translate(0.000000, 0.000000)">
                <path d="M132.504193,3.981 L205.236193,119.724 L248.843193,189.111 C249.518193,190.19 249.898193,191.379 249.984193,192.573 C249.993193,192.726 249.997193,192.885 249.997193,193.041 C249.997193,193.269 249.990193,193.493 249.972193,193.72 L249.938193,194.016 L249.903443,194.2505 L249.903443,194.2505 L249.859193,194.513375 L249.859193,194.513375 L249.845193,194.561 L249.845193,194.561 L249.845193,194.574 L249.797068,194.8035 L249.797068,194.8035 L249.736193,195.033 C249.736193,195.045 249.729193,195.05 249.721193,195.062 C249.721193,195.079 249.721193,195.091 249.710193,195.108 L249.653318,195.307625 L249.653318,195.307625 L249.537193,195.63 L249.537193,195.63 C249.466193,195.809 249.391193,195.994 249.304193,196.175 C249.230193,196.343 249.143193,196.504 249.049193,196.673 L248.905443,196.921 L248.905443,196.921 L248.748193,197.166 C248.69086,197.258667 248.628193,197.348222 248.561674,197.437333 L248.403443,197.647625 L248.403443,197.647625 L248.343193,197.722 C248.245193,197.851 248.132193,197.976 248.024193,198.105 L239.591193,207.512 C236.714193,210.725 231.621193,211.357 227.913193,208.957 C227.241193,208.519 226.550193,208.088 225.855193,207.663 C225.689193,207.5555 225.521943,207.451 225.354193,207.34775 L224.851193,207.04 C221.355193,204.924 217.606193,202.902 213.640193,201 C205.839193,197.245 197.185193,193.945 187.839193,191.22 C175.250806,187.543548 161.414968,184.921623 146.764898,183.59893 L145.298193,183.471 L145.298193,155.294 C157.385193,156.183 169.079193,157.845 180.237193,160.223 C185.808193,161.4083 191.252023,162.76856 196.531504,164.295761 L198.285193,164.811 L198.315193,164.865 L223.849193,205.487 C224.174818,206.008875 224.56099,206.490906 225.002093,206.927479 C224.563552,206.490906 224.175818,206.008875 223.850193,205.487 L198.316193,164.865 L198.286193,164.811 L178.778193,133.763 L132.504193,60.126 C129.168193,54.818 120.829193,54.818 117.494193,60.126 L71.2221928,133.763 L51.709193,164.812 L52.301693,164.632625 L52.301693,164.632625 L52.897193,164.46 C68.4750216,159.9176 85.3692746,156.820908 103.129847,155.414685 L104.699193,155.295 L104.699193,183.479 C94.960193,184.29 85.568193,185.682 76.655193,187.578 C61.686193,190.765 48.055193,195.374 36.355193,201.001 C32.389193,202.903 28.642193,204.925 25.145193,207.041 L24.640443,207.34875 L24.640443,207.34875 L24.1421928,207.663 L24.1421928,207.663 C23.4471928,208.088 22.7551928,208.519 22.0831928,208.957 C18.3771928,211.356 13.2851928,210.725 10.4081928,207.512 L1.97319283,198.105 C1.70919283,197.802 1.46519283,197.49 1.24819283,197.166 C1.19719283,197.09 1.14419283,197.01 1.09819283,196.929 C0.790192832,196.424 0.545192832,195.897 0.367192832,195.357 C0.325192832,195.24 0.293192832,195.118 0.264192832,195.003 C0.234192832,194.91 0.212192832,194.817 0.195192832,194.725 C0.181192832,194.686 0.171192832,194.644 0.164192832,194.598 L0.155817832,194.5795 L0.155817832,194.5795 L0.135692832,194.48375 L0.135692832,194.48375 L0.0901928319,194.215 C0.0781928319,194.145 0.0661928319,194.081 0.0621928319,194.018 C0.0431928319,193.92 0.0321928319,193.82 0.0261928319,193.722 C-0.00380716809,193.339 -0.00880716809,192.955 0.0151928319,192.573 C0.101192832,191.379 0.479192832,190.19 1.15719283,189.111 L2.07919283,187.638 L44.7621928,119.724 L117.494193,3.981 C120.829193,-1.327 129.168193,-1.327 132.504193,3.981 Z" id="Path"></path>
                <path d="M124.997193,137.712 L112.335193,137.712 C108.166193,137.712 105.563193,133.202 107.647193,129.595 L113.980193,118.624 L120.313193,107.657 C122.395193,104.051 127.604193,104.051 129.685193,107.657 L136.018193,118.624 L142.350193,129.595 C144.435193,133.202 141.831193,137.712 137.662193,137.712 L124.997193,137.712 Z" id="Path"></path>
            </g>
        </g>
    </g>
</svg>