<svg id="Layer_1" data-name="Layer 1" xmlns="http://www.w3.org/2000/svg" viewBox="0 0 737 119"><defs><style>.cls-1{fill:#fff;}</style></defs><title>Codefresh-horizontal-white-trans</title><path class="cls-1" d="M97.17,35.09S116.35,54.49,110.71,87c19.18-7.67,26.62-20.53,28.88-33.39,0,0,6.54-24.37,16.7-34.52-20.08,3.16-22.11-4.74-59.11,16"/><path class="cls-1" d="M101,94.2h0c.45-2.48,7.85-27.78-6.81-48.31C69.64,18.61,32.64,14.78,32.64,14.78c7.22,14,7.45,27.07,15.34,53.7C57.54,96.07,92.81,97.93,95.42,98c2.37,3.75,7.8,8.8,20.23,11.41l1.38-6.57c-10.73-2.25-14.65-6.39-16-8.67M66.45,60C63.6,50.78,55.67,35.24,46.26,27.07c0,0,27.9,7.36,44,59.62C75.09,82.1,68.62,67.09,66.42,60"/><path class="cls-1" d="M36.6,6.75C21,14.12,14.74,32.11,14.74,59.61c0,27,6.25,45.1,21.86,53l-1.75,6.75C10.87,110.93,0,92.19,0,59.72,0,27,10.87,8.25,34.85,0Z"/><path class="cls-1" d="M152.15,0C176.15,8.24,187,27,187,59.71c0,32.48-10.87,51.22-34.85,59.58l-1.87-6.74c15.62-7.87,21.86-26,21.86-53,0-27.48-6.25-45.47-21.86-52.84Z"/><path class="cls-1" d="M258.48,88.54c-6.76,2.95-15.27,3.93-22.69,3.93-19.08,0-28.25-8.29-25.3-29.23,2.72-19.75,10.25-27.82,30.22-27.82,7.52,0,16.69,1.2,23,3.93L261,51.45l-17.78-.11c-8.07,0-10.8,2.73-12.11,12.54-1.42,10.8.44,12.76,8.29,12.76a161.13,161.13,0,0,0,17.67-.87Z"/><path class="cls-1" d="M328.18,64.87c-3,20.4-11.23,27.59-32,27.59s-29.52-7.85-26.47-29.12c2.85-20.61,11.13-27.93,32.19-27.93,20.83,0,29.34,8.08,26.29,29.46m-37.85,0c-1.53,11.13-.55,13.74,6.55,13.74,6.87,0,9.06-2.94,10.8-15.27,1.74-11.34.55-14-6.11-14-7.2,0-9.38,2.72-11.24,15.49"/><path class="cls-1" d="M391.22,91.16h-15.6L375.41,82c-5.13,4.91-12.65,10.47-21.27,10.47-12.65,0-18.32-8.95-15.6-29.67,3-22.69,11.89-27.38,23.56-27.38A96.82,96.82,0,0,1,379.55,37a66.76,66.76,0,0,1,.77-11.13l1.85-11H402Zm-20.61-43c-8.29,0-10.25,1.74-11.89,14.29-1.31,9.82-1.53,13.74,3.38,13.42,4.47-.11,8.18-2.4,12.22-5.67l2.94-22Z"/><path class="cls-1" d="M459.4,88.11c-7.32,3.28-16.8,4.36-24.88,4.36-23.12,0-29.44-10.14-27.38-29.12,2.52-22.57,12.77-27.92,32.29-27.92,21.38,0,27,7.09,25.3,19.52C463.2,65.1,456.33,68,442,69.13l-14.73,1.09c.23,5.79,3.06,6.88,9.17,6.88,4.79,0,15-.55,21.59-1.31ZM437.69,58.87c4.91-.44,7.52-1.2,8-5.89.33-3.6-1.09-4.26-6.55-4.15-6.66.11-8.84,2.07-10.58,10.91Z"/><path class="cls-1" d="M507.39,21.61c-6.66,0-9.38,1.53-10.36,8.51L495.83,38H512.3l-1.1,8.13H494.73l-7.2,51.16c-1.41,9.93-7.09,15.59-17.34,15.59A111.58,111.58,0,0,1,457,112l1.64-7.86h8.18c6.55,0,9.27-1.53,10.26-8.51l7-49.52h-9.49l1-7.64,9.71-.54,1.31-9.49C488,18.51,493.64,13,504,13a127.84,127.84,0,0,1,15.59.76l-1.74,7.9Z"/><path class="cls-1" d="M557.13,46.44h-3c-6,0-11.78,4-21,10.8l-4.69,33.92H517.85l7.52-53.23h8.08l-.55,12.22c8.5-8.72,16.79-13.64,24-13.64h2.84Z"/><path class="cls-1" d="M609.15,89.42c-5.78,2.29-15.6,3.06-21.92,3.06-18.44,0-24.76-9.49-22.15-29.34,2.84-20.73,10.14-26.62,29.44-26.62,17.45,0,21.71,6.55,20.18,17.24-1.74,10.58-7.85,14.4-20.83,15.38l-18.44,1.64c-.11,10.69,4.91,12.86,13.41,12.86,5.9,0,13.53-.65,19.64-1.31ZM593.88,61.27c6.55-.43,9.38-2.28,10.25-8.4,1-7.31-2.72-7.52-11.23-7.52-10.79,0-14.5,2.94-16.79,17.56Z"/><path class="cls-1" d="M638.38,64.76c-7.63-3.6-11.23-7.74-10.25-15.49,1.2-10.14,8.51-13,22.47-12.76a177,177,0,0,1,22.79,1.86l-1.31,7.52c-6.76-.21-13.09-.44-21.16-.55-8.73,0-12,.22-12.55,4.69-.54,4,2,5.13,6.34,7.09l14.4,6.55c8.28,3.82,11.67,7.2,10.57,15.38-1.63,12.11-10.25,13.31-25.2,13.31-11.45,0-12.87-.77-20.61-1.53l1.2-7.85c4.91.43,11.78.55,16.69.55,13.42,0,16.91-1.09,17.56-5.46.65-3.92-2-4.58-6.66-6.76Z"/><path class="cls-1" d="M702.08,35.75a115.8,115.8,0,0,1-2.62,13.09c9.27-8.18,17-12.33,24.65-12.33,8.84,0,14.08,5.13,12.66,14.94l-5.67,39.7H720.62l5.13-37.08c.87-6.66-.33-8.62-4.91-8.62-6.55,0-12.87,4.47-22,11.67l-4.69,34H683.54l10.8-76.35H704.8Z"/></svg>